<svg xmlns="http://www.w3.org/2000/svg" viewBox="0 0 1920 953" preserveAspectRatio="xMidYMid" width="1920" height="953" xmlns:xlink="http://www.w3.org/1999/xlink" style="shape-rendering:auto;display:block;background-position-x:0%;background-position-y:0%;background-size:auto;background-origin:padding-box;background-clip:border-box;background:scroll rgb(1, 44, 50) none  repeat;width:1920px;height:953px;;animation:none"><g><path stroke-width="0" fill="#0f3135" d="M -100 571.51 C -65.45 568.71 -64.93 568.79 -31.61 568.79 S 4.26 563.43 36.77 563.43 S 73.12 562.28 105.16 562.28 S 140.55 574.56 173.55 574.56 S 208.64 557.26 241.94 557.26 S 276.42 565.46 310.32 565.46 S 345.41 570.8 378.71 570.8 S 414.78 555.66 447.1 555.66 S 483.2 569.33 515.48 569.33 S 551.99 561.4 583.87 561.4 S 619.32 559.5 652.26 559.5 S 687.45 554.11 720.65 554.11 S 755.19 559.75 789.03 559.75 S 823.85 565.45 857.42 565.45 S 893.42 564.22 925.81 564.22 S 962.26 574.98 994.19 574.98 S 1029.01 576.36 1062.58 576.36 S 1097.3 572.58 1130.97 572.58 S 1166.3 558.27 1199.35 558.27 S 1235.37 566.21 1267.74 566.21 S 1302.66 564.65 1336.13 564.65 S 1372.29 559.14 1404.52 559.14 S 1440.87 560.63 1472.9 560.63 S 1509.46 560.34 1541.29 560.34 S 1576.7 559.78 1609.68 559.78 S 1644.9 567.55 1678.06 567.55 S 1713.23 575.88 1746.45 575.88 S 1781.78 560.95 1814.84 560.95 S 1849.9 553.13 1883.23 553.13 S 1918.25 568.89 1951.61 568.89 S 1986.64 556.59 2020 556.59 S 2055.71 556.39 2088.39 556.39 L 2020 953 L -100 953 Z" transform="matrix(1,0,0,1,0,0)" style="fill:rgb(15, 49, 53);transform:matrix(1, 0, 0, 1, 0, 0);;animation:none"></path>
<path stroke-width="0" fill="#254346" d="M -100 599.7 C -64.35 581.43 -63.9 596.23 -29.8 596.23 S 5.9 588.6 40.4 588.6 S 76.97 585.65 110.6 585.65 S 146.89 588.04 180.79 588.04 S 217.64 599.68 250.99 599.68 S 286.19 588.75 321.19 588.75 S 357.11 593.22 391.39 593.22 S 426.61 580.1 461.59 580.1 S 497.18 587.29 531.79 587.29 S 568.24 581.7 601.99 581.7 S 637.9 581.44 672.19 581.44 S 708.47 589.51 742.38 589.51 S 778.06 594.2 812.58 594.2 S 849.53 592.1 882.78 592.1 S 918.29 589.47 952.98 589.47 S 989.1 584.36 1023.18 584.36 S 1059.93 592.32 1093.38 592.32 S 1129.85 591.86 1163.58 591.86 S 1199.75 598.36 1233.77 598.36 S 1271.13 585.24 1303.97 585.24 S 1341.43 604.47 1374.17 604.47 S 1409.57 598.24 1444.37 598.24 S 1480.85 583.61 1514.57 583.61 S 1550.85 577.66 1584.77 577.66 S 1621.61 583.25 1654.97 583.25 S 1691.26 585.18 1725.17 585.18 S 1762.5 595.23 1795.36 595.23 S 1832.83 592.82 1865.56 592.82 S 1901.49 595.16 1935.76 595.16 S 1972.19 595.91 2005.96 595.91 S 2042.3 581.37 2076.16 581.37 L 2020 953 L -100 953 Z" transform="matrix(1,0,0,1,1.1340199708938599,0)" style="fill:rgb(37, 67, 70);transform:matrix(1, 0, 0, 1, 1.13402, 0);;animation:none"></path>
<path stroke-width="0" fill="#3b5658" d="M -100 621.87 C -61.59 623.56 -62.12 624.88 -27.89 624.88 S 10.13 622.02 44.22 622.02 S 80.87 622.73 116.33 622.73 S 154.17 610.73 188.44 610.73 S 225.76 623.38 260.54 623.38 S 297.42 603.81 332.65 603.81 S 369.81 613.84 404.76 613.84 S 441.84 617.3 476.87 617.3 S 514.48 626.29 548.98 626.29 S 587.26 622.67 621.09 622.67 S 657.98 630.93 693.2 630.93 S 731.35 622.95 765.31 622.95 S 802.79 622.21 837.41 622.21 S 875.68 611.27 909.52 611.27 S 947.53 633.4 981.63 633.4 S 1019.85 600.56 1053.74 600.56 S 1091.73 609.41 1125.85 609.41 S 1162.52 622.45 1197.96 622.45 S 1236.1 621.49 1270.07 621.49 S 1306.4 616.12 1342.18 616.12 S 1378.56 627.66 1414.29 627.66 S 1450.84 615.97 1486.39 615.97 S 1524.73 630.6 1558.5 630.6 S 1596.41 617.74 1630.61 617.74 S 1668.6 614.42 1702.72 614.42 S 1740.25 611.2 1774.83 611.2 S 1810.96 619.21 1846.94 619.21 S 1884.48 622.38 1919.05 622.38 S 1956.39 620.5 1991.16 620.5 S 2028.24 629.54 2063.27 629.54 L 2020 953 L -100 953 Z" transform="matrix(1,0,0,1,3.5863146781921387,0)" style="fill:rgb(59, 86, 88);transform:matrix(1, 0, 0, 1, 3.58631, 0);;animation:none"></path>
<path stroke-width="0" fill="#51696b" d="M -100 636.1 C -62.01 642.13 -62.39 654.57 -25.87 654.57 S 12.84 656.5 48.25 656.5 S 87.58 650.75 122.38 650.75 S 161.33 632.39 196.5 632.39 S 233.82 656.01 270.63 656.01 S 307.72 635.23 344.76 635.23 S 383.92 630.31 418.88 630.31 S 458.19 655.62 493.01 655.62 S 531.15 649.39 567.13 649.39 S 606.45 624.31 641.26 624.31 S 678.49 632.73 715.38 632.73 S 752.62 636.62 789.51 636.62 S 828.46 642.57 863.64 642.57 S 902.44 632.67 937.76 632.67 S 975.02 645.52 1011.89 645.52 S 1050.41 624.51 1086.01 624.51 S 1123.9 659.03 1160.14 659.03 S 1197.55 645.64 1234.27 645.64 S 1273.44 653.82 1308.39 653.82 S 1345.5 654.91 1382.52 654.91 S 1419.59 636.78 1456.64 636.78 S 1495.65 640.39 1530.77 640.39 S 1568.57 660.93 1604.9 660.93 S 1643.64 658.05 1679.02 658.05 S 1717.06 654.88 1753.15 654.88 S 1792.32 638.56 1827.27 638.56 S 1866.35 661.25 1901.4 661.25 S 1939.48 643.92 1975.52 643.92 S 2013.79 645.9 2049.65 645.9 L 2020 953 L -100 953 Z" transform="matrix(1,0,0,1,6.4136857986450195,0)" style="fill:rgb(81, 105, 107);transform:matrix(1, 0, 0, 1, 6.41369, 0);;animation:none"></path>
<path stroke-width="0" fill="#677d7f" d="M -100 650.05 C -60.36 654.87 -59.7 671.31 -23.74 671.31 S 15.61 672.3 52.52 672.3 S 92.98 682.48 128.78 682.48 S 168.87 662.64 205.04 662.64 S 243.37 672.24 281.29 672.24 S 319.9 670.47 357.55 670.47 S 397.89 681.31 433.81 681.31 S 473.66 668.83 510.07 668.83 S 550.09 682.35 586.33 682.35 S 625.17 669.49 662.59 669.49 S 702.47 676.74 738.85 676.74 S 778.17 654.03 815.11 654.03 S 854.23 686.82 891.37 686.82 S 931.6 688.08 967.63 688.08 S 1006.56 688.55 1043.88 688.55 S 1082.58 666.38 1120.14 666.38 S 1159.54 687.62 1196.4 687.62 S 1234.7 661.89 1272.66 661.89 S 1311.89 680.24 1348.92 680.24 S 1389.41 666.58 1425.18 666.58 S 1465.63 661.67 1501.44 661.67 S 1540.16 666.27 1577.7 666.27 S 1616.59 670.42 1653.96 670.42 S 1692.65 658.3 1730.22 658.3 S 1769.38 678.95 1806.47 678.95 S 1846.03 673.04 1882.73 673.04 S 1923.02 677.78 1958.99 677.78 S 1999.34 648.85 2035.25 648.85 L 2020 953 L -100 953 Z" transform="matrix(1,0,0,1,8.86598014831543,0)" style="fill:rgb(103, 125, 127);transform:matrix(1, 0, 0, 1, 8.86598, 0);;animation:none"></path>
<path stroke-width="0" fill="#7e9193" d="M -100 682.47 C -59.36 681.64 -58.94 709.29 -21.48 709.29 S 19.3 673.68 57.04 673.68 S 98 708.89 135.56 708.89 S 175.51 674.84 214.07 674.84 S 254.41 697.78 292.59 697.78 S 333.59 675.92 371.11 675.92 S 410.37 709.11 449.63 709.11 S 490.15 691.87 528.15 691.87 S 569.07 708.26 606.67 708.26 S 646.67 688.82 685.19 688.82 S 726.18 715.85 763.7 715.85 S 804.16 680.23 842.22 680.23 S 881.82 711.18 920.74 711.18 S 962.09 693.78 999.26 693.78 S 1038.57 709.21 1077.78 709.21 S 1118.18 704.35 1156.3 704.35 S 1196 703.13 1234.81 703.13 S 1275.79 692.58 1313.33 692.58 S 1353.23 713.93 1391.85 713.93 S 1431.81 688.36 1470.37 688.36 S 1511.82 716.37 1548.89 716.37 S 1588.53 683.53 1627.41 683.53 S 1667.53 705.06 1705.93 705.06 S 1746.92 675.61 1784.44 675.61 S 1824.73 698.43 1862.96 698.43 S 1902.7 693.83 1941.48 693.83 S 1982.8 708.7 2020 708.7 S 2060.22 677.43 2098.52 677.43 L 2020 953 L -100 953 Z" transform="matrix(1,0,0,1,10,0)" style="fill:rgb(126, 145, 147);transform:matrix(1, 0, 0, 1, 10, 0);;animation:none"></path>
<path stroke-width="0" fill="#95a6a7" d="M -100 717.64 C -58.14 717.15 -57.35 730.91 -19.08 730.91 S 23.4 706.16 61.83 706.16 S 102.84 746.17 142.75 746.17 S 183.66 708.05 223.66 708.05 S 266.14 733.1 304.58 733.1 S 345.76 700.53 385.5 700.53 S 428.26 732.44 466.41 732.44 S 506.88 704.86 547.33 704.86 S 588.73 727.99 628.24 727.99 S 668.86 706.11 709.16 706.11 S 751.31 729.13 790.08 729.13 S 831.47 707.68 870.99 707.68 S 912.09 727.94 951.91 727.94 S 992.6 719.16 1032.82 719.16 S 1075.02 741.28 1113.74 741.28 S 1155.34 709.96 1194.66 709.96 S 1235.58 729.22 1275.57 729.22 S 1317.4 712.36 1356.49 712.36 S 1397.05 728.21 1437.4 728.21 S 1478.74 710.86 1518.32 710.86 S 1560.33 730.42 1599.24 730.42 S 1641.19 716.33 1680.15 716.33 S 1721.76 729.54 1761.07 729.54 S 1801.96 712.88 1841.98 712.88 S 1883.63 730.57 1922.9 730.57 S 1964.03 696.6 2003.82 696.6 S 2046.56 718.66 2084.73 718.66 L 2020 953 L -100 953 Z" transform="matrix(1,0,0,1,8.86598014831543,0)" style="fill:rgb(149, 166, 167);transform:matrix(1, 0, 0, 1, 8.86598, 0);;animation:none"></path>
<path stroke-width="0" fill="#adbcbc" d="M -100 743.09 C -56.95 724.86 -55.93 753.37 -16.54 753.37 S 26.6 720.27 66.93 720.27 S 109.15 764.01 150.39 764.01 S 192.46 726.45 233.86 726.45 S 275.79 728.64 317.32 728.64 S 360.68 725.93 400.79 725.93 S 444.55 770.28 484.25 770.28 S 527.32 722.71 567.72 722.71 S 610.39 771.13 651.18 771.13 S 693.12 774.49 734.65 774.49 S 776.95 769.91 818.11 769.91 S 862.08 741.36 901.57 741.36 S 943.71 723.09 985.04 723.09 S 1027.35 731.03 1068.5 731.03 S 1112.27 765.79 1151.97 765.79 S 1194.36 739.14 1235.43 739.14 S 1279.44 742.99 1318.9 742.99 S 1362.8 728.12 1402.36 728.12 S 1445.85 735.75 1485.83 735.75 S 1529.09 719.66 1569.29 719.66 S 1612.66 757.14 1652.76 757.14 S 1696.27 739.09 1736.22 739.09 S 1778.3 771.7 1819.69 771.7 S 1862.22 738.37 1903.15 738.37 S 1944.95 754 1986.61 754 S 2028.65 729.62 2070.08 729.62 L 2020 953 L -100 953 Z" transform="matrix(1,0,0,1,6.4136857986450195,0)" style="fill:rgb(173, 188, 188);transform:matrix(1, 0, 0, 1, 6.41369, 0);;animation:none"></path>
<path stroke-width="0" fill="#c6d2d2" d="M -100 765.16 C -55.37 746.16 -54.96 793.61 -13.82 793.61 S 31.29 753.53 72.36 753.53 S 115.85 791.26 158.54 791.26 S 202.12 785.69 244.72 785.69 S 289 800.17 330.89 800.17 S 375.51 787.35 417.07 787.35 S 460.52 783.99 503.25 783.99 S 548.42 766.75 589.43 766.75 S 634.28 791.88 675.61 791.88 S 719.37 756.9 761.79 756.9 S 806.08 787.29 847.97 787.29 S 892.34 803.26 934.15 803.26 S 979.37 762.97 1020.33 762.97 S 1064.45 746.92 1106.5 746.92 S 1149.82 799.14 1192.68 799.14 S 1235.86 766.29 1278.86 766.29 S 1323.32 791.61 1365.04 791.61 S 1409.69 795.93 1451.22 795.93 S 1496.35 794.82 1537.4 794.82 S 1580.67 747.24 1623.58 747.24 S 1666.69 796.14 1709.76 796.14 S 1753.27 764.14 1795.93 764.14 S 1840.28 795.96 1882.11 795.96 S 1925.67 761.89 1968.29 761.89 S 2011.41 785.9 2054.47 785.9 L 2020 953 L -100 953 Z" transform="matrix(1,0,0,1,3.5863142013549805,0)" style="fill:rgb(198, 210, 210);transform:matrix(1, 0, 0, 1, 3.58631, 0);;animation:none"></path>
<path stroke-width="0" fill="#dfe8e8" d="M -100 772.27 C -54.35 788.47 -54.81 789.01 -10.92 789.01 S 34.06 785.99 78.15 785.99 S 123.8 788.19 167.23 788.19 S 212.97 815.39 256.3 815.39 S 302.64 817.6 345.38 817.6 S 390.16 773.27 434.45 773.27 S 480.08 823.14 523.53 823.14 S 569.48 816.81 612.61 816.81 S 658.3 816.7 701.68 816.7 S 747.24 780.84 790.76 780.84 S 835.97 823.03 879.83 823.03 S 926.39 782.56 968.91 782.56 S 1014.55 815.63 1057.98 815.63 S 1103.97 772.26 1147.06 772.26 S 1193.65 771.79 1236.13 771.79 S 1281.49 816.91 1325.21 816.91 S 1371.25 814.32 1414.29 814.32 S 1459.41 772.44 1503.36 772.44 S 1548.86 820.41 1592.44 820.41 S 1638.54 784.31 1681.51 784.31 S 1728.22 813.25 1770.59 813.25 S 1817.42 771.64 1859.66 771.64 S 1904.31 827.01 1948.74 827.01 S 1994.56 782.71 2037.82 782.71 L 2020 953 L -100 953 Z" transform="matrix(1,0,0,1,1.1340198516845703,0)" style="fill:rgb(223, 232, 232);transform:matrix(1, 0, 0, 1, 1.13402, 0);;animation:none"></path>
<g></g></g></svg>